<svg width="65" height="65" viewBox="0 0 65 65" fill="none" xmlns="http://www.w3.org/2000/svg">
<circle cx="32.5" cy="32.5" r="32.5" fill="#272465"/>
<path d="M32.7323 18.4213L23.748 25.8144H18.2083C17.1075 25.8144 16.2551 26.8527 16.2551 28.0987V37.485C16.2551 38.7724 17.1429 39.7694 18.2083 39.7694H23.748L32.7323 47.1206C34.0462 48.2004 35.8217 47.1206 35.8217 45.2518V20.3324C35.8217 18.4635 34.0462 17.3421 32.7323 18.4218V18.4213Z" fill="#86DA5E"/>
<path d="M53.5949 37.2011L48.8905 32.4995L53.5913 27.7951C54.1335 27.2547 54.1335 26.3858 53.5931 25.8436L53.1563 25.406C52.8997 25.1431 52.5485 25 52.1793 25H52.1774C51.8082 25 51.4615 25.1449 51.2022 25.4052L46.4995 30.1113L41.7951 25.4104C41.2556 24.8701 40.3876 24.8675 39.8454 25.4078L39.4079 25.841C39.1439 26.0995 39 26.4507 39 26.8189C39 27.189 39.1449 27.5375 39.4052 27.7968L44.1113 32.4995L39.4097 37.2039C38.8675 37.7443 38.8675 38.6132 39.4079 39.1572L39.8446 39.594C40.1031 39.8569 40.4533 40 40.8226 40C41.19 40 41.5412 39.8533 41.7997 39.5948L46.5013 34.8895L51.2039 39.5893C51.4705 39.8587 51.8252 39.9945 52.181 39.9945C52.5332 39.9945 52.8862 39.8603 53.1553 39.5919L53.5921 39.1561C53.8569 38.8994 54 38.5483 54 38.179C54.0018 37.8098 53.8569 37.4612 53.5966 37.2011L53.5949 37.2011Z" fill="#86DA5E"/>
</svg>
